<svg xmlns="http://www.w3.org/2000/svg" viewBox="0 0 512 512" style="enable-background:new 0 0 512 512" xml:space="preserve"><path style="fill:#002e35" d="m52.78 413.216 111.617-111.622 46.012 46.014L98.792 459.23c8.47 8.471 8.47 22.206 0 30.676l-7.668 7.669c-8.47 8.471-22.204 8.471-30.675 0l-46.012-46.014c-8.47-8.471-8.47-22.206 0-30.676l7.668-7.669c8.472-8.471 22.205-8.471 30.675 0z"/><path style="fill:#004859" d="m72.989 433.424 2.892 2.892 103.995-104.001 22.913 22.914L98.793 459.23c8.47 8.471 8.47 22.206 0 30.676l-7.668 7.669a21.707 21.707 0 0 1-2.804 2.339l-28.085-28.086-3.761-3.761-6.266-6.267-2.798-2.798c-7.062-7.063-7.062-18.515 0-25.578 7.064-7.062 18.514-7.062 25.578 0z"/><path style="fill:#ffb150" d="m497.563 106.453-7.668 7.669-291.409 245.411-46.012-46.014L397.87 22.093l7.668-7.669c8.47-8.471 22.205-8.471 30.675 0l61.349 61.353c8.472 8.471 8.472 22.204.001 30.676z"/><path style="fill:#d18839" d="M466.888 91.114 175.479 336.525l-23.006-23.008L397.87 22.093l7.668-7.669c8.47-8.471 22.205-8.471 30.675 0l38.343 38.345c8.47 8.471 8.47 22.206 0 30.676l-7.668 7.669z"/><path style="fill:#fff" d="M336.301 201.147a8.086 8.086 0 0 1-.675 11.414l-.946.841a8.085 8.085 0 0 1-11.413-.674 8.084 8.084 0 0 1 .675-11.413l.946-.841c3.337-2.966 8.45-2.652 11.413.673zM472.546 80.03c-2.969-3.323-8.076-3.637-11.413-.672L348.484 179.495a8.085 8.085 0 0 0 10.743 12.084L471.875 91.443a8.085 8.085 0 0 0 .671-11.413z"/><path d="M503.279 70.06 441.93 8.707c-11.61-11.61-30.499-11.608-42.107 0l-7.669 7.669a8.363 8.363 0 0 0-.468.51L146.512 308.047l-94.52 94.525c-11.337-6.344-25.974-4.701-35.603 4.928l-7.669 7.669C3.097 420.791 0 428.269 0 436.223c0 7.953 3.098 15.43 8.721 21.053l46.012 46.016c5.806 5.806 13.428 8.708 21.053 8.707 7.624-.001 15.25-2.904 21.053-8.707l7.669-7.67c9.628-9.629 11.27-24.267 4.927-35.604l94.521-94.526L495.1 120.305c.177-.15.346-.305.509-.468l7.668-7.669c5.624-5.623 8.722-13.101 8.722-21.055.001-7.952-3.097-15.429-8.72-21.053zM93.076 484.19l-7.669 7.669a13.513 13.513 0 0 1-9.621 3.985 13.514 13.514 0 0 1-9.621-3.985l-46.012-46.016a13.517 13.517 0 0 1-3.985-9.621c0-3.634 1.415-7.05 3.985-9.62l7.669-7.669a13.513 13.513 0 0 1 9.621-3.985c3.635 0 7.052 1.415 9.621 3.985l46.012 46.015c5.305 5.304 5.305 13.937 0 19.242zm5.716-36.393-34.579-34.581 23.076-23.077 17.289 17.29c1.578 1.578 3.648 2.367 5.716 2.367s4.138-.789 5.716-2.367a8.086 8.086 0 0 0 0-11.434l-17.289-17.289 19.241-19.243 17.289 17.29a8.06 8.06 0 0 0 5.716 2.367 8.086 8.086 0 0 0 5.716-13.801l-17.289-17.289 23.076-23.078 34.579 34.581-88.257 88.264zm393.055-347.062-7.425 7.425-285.467 240.407-35.518-35.519L403.831 27.565l7.425-7.423c2.57-2.571 5.987-3.985 9.621-3.985s7.052 1.415 9.621 3.985l61.349 61.353a13.517 13.517 0 0 1 3.985 9.621c0 3.633-1.416 7.05-3.985 9.619z"/></svg>